<svg width="123" height="27" viewBox="0 0 123 27" fill="none" xmlns="http://www.w3.org/2000/svg">
<g filter="url(#filter0_b_1_7)">
<path d="M1.01562 4.89453C0.332031 4.89453 -0.00976562 4.59831 -0.00976562 4.00586V2.2832C-0.00976562 1.69076 0.332031 1.39453 1.01562 1.39453H15.0703C15.7539 1.39453 16.0957 1.69076 16.0957 2.2832V4.00586C16.0957 4.59831 15.7539 4.89453 15.0703 4.89453H10.0391V20.248C10.0391 20.7493 9.8112 21 9.35547 21H6.73047C6.27474 21 6.04688 20.7493 6.04688 20.248V4.89453H1.01562ZM14.0723 13.8223C14.0723 11.498 14.6693 9.67513 15.8633 8.35352C17.0664 7.0319 18.8529 6.37109 21.2227 6.37109C23.5924 6.37109 25.3743 7.0319 26.5684 8.35352C27.7715 9.67513 28.373 11.498 28.373 13.8223C28.373 16.1465 27.7715 17.9694 26.5684 19.291C25.3743 20.6126 23.5924 21.2734 21.2227 21.2734C18.8529 21.2734 17.0664 20.6126 15.8633 19.291C14.6693 17.9694 14.0723 16.1465 14.0723 13.8223ZM18.1191 13.8223C18.1191 15.554 18.3835 16.7845 18.9121 17.5137C19.4499 18.2337 20.2201 18.5938 21.2227 18.5938C22.2253 18.5938 22.9909 18.2337 23.5195 17.5137C24.0573 16.7845 24.3262 15.554 24.3262 13.8223C24.3262 12.0905 24.0573 10.8646 23.5195 10.1445C22.9909 9.41536 22.2253 9.05078 21.2227 9.05078C20.2201 9.05078 19.4499 9.41536 18.9121 10.1445C18.3835 10.8646 18.1191 12.0905 18.1191 13.8223ZM30.5605 13.8223C30.5605 11.8171 30.9935 10.0762 31.8594 8.59961C32.7344 7.11393 34.2428 6.37109 36.3848 6.37109C37.2051 6.37109 37.9069 6.48958 38.4902 6.72656C39.0736 6.96354 39.6022 7.47396 40.0762 8.25781H40.1309C40.0944 7.89323 40.0762 7.52865 40.0762 7.16406V1.64062C40.0762 1.09375 40.3496 0.820312 40.8965 0.820312H43.084C43.6309 0.820312 43.9043 1.09375 43.9043 1.64062V20.1797C43.9043 20.7266 43.6309 21 43.084 21H40.9238C40.4681 21 40.222 20.7266 40.1855 20.1797L40.1309 19.3867H40.0762C39.6022 20.1706 39.0736 20.681 38.4902 20.918C37.9069 21.1549 37.2051 21.2734 36.3848 21.2734C34.2428 21.2734 32.7344 20.5352 31.8594 19.0586C30.9935 17.5729 30.5605 15.8275 30.5605 13.8223ZM34.6074 13.8223C34.6074 15.2806 34.7943 16.4427 35.168 17.3086C35.5508 18.1654 36.3574 18.5938 37.5879 18.5938C38.2715 18.5938 38.8548 18.2109 39.3379 17.4453C39.8301 16.6706 40.0762 15.668 40.0762 14.4375V13.207C40.0762 11.9766 39.8301 10.9785 39.3379 10.2129C38.8548 9.43815 38.2715 9.05078 37.5879 9.05078C36.3574 9.05078 35.5508 9.48372 35.168 10.3496C34.7943 11.2064 34.6074 12.3639 34.6074 13.8223ZM46.8574 13.8223C46.8574 11.498 47.4544 9.67513 48.6484 8.35352C49.8516 7.0319 51.638 6.37109 54.0078 6.37109C56.3776 6.37109 58.1595 7.0319 59.3535 8.35352C60.5566 9.67513 61.1582 11.498 61.1582 13.8223C61.1582 16.1465 60.5566 17.9694 59.3535 19.291C58.1595 20.6126 56.3776 21.2734 54.0078 21.2734C51.638 21.2734 49.8516 20.6126 48.6484 19.291C47.4544 17.9694 46.8574 16.1465 46.8574 13.8223ZM50.9043 13.8223C50.9043 15.554 51.1686 16.7845 51.6973 17.5137C52.235 18.2337 53.0052 18.5938 54.0078 18.5938C55.0104 18.5938 55.776 18.2337 56.3047 17.5137C56.8424 16.7845 57.1113 15.554 57.1113 13.8223C57.1113 12.0905 56.8424 10.8646 56.3047 10.1445C55.776 9.41536 55.0104 9.05078 54.0078 9.05078C53.0052 9.05078 52.235 9.41536 51.6973 10.1445C51.1686 10.8646 50.9043 12.0905 50.9043 13.8223ZM73.3945 21C72.7383 21 72.5241 20.6992 72.752 20.0977L79.4512 2.50195C79.7337 1.76367 80.1621 1.39453 80.7363 1.39453H82.6504C83.2246 1.39453 83.653 1.76367 83.9355 2.50195L90.6348 20.0977C90.8626 20.6992 90.6484 21 89.9922 21H87.8184C87.2168 21 86.7975 20.6855 86.5605 20.0566L85.166 16.3789H78.2207L76.8262 20.0566C76.5892 20.6855 76.1699 21 75.5684 21H73.3945ZM79.4922 12.9883H83.8945L82.2129 8.64062C82.0124 8.13021 81.8893 7.76107 81.8438 7.5332C81.8073 7.29622 81.7663 6.94987 81.7207 6.49414H81.666C81.6204 6.94987 81.5749 7.29622 81.5293 7.5332C81.4928 7.76107 81.3743 8.13021 81.1738 8.64062L79.4922 12.9883ZM93.5605 26.4688C93.0137 26.4688 92.7402 26.1953 92.7402 25.6484V7.46484C92.7402 6.91797 93.0137 6.64453 93.5605 6.64453H95.7207C96.1764 6.64453 96.4225 6.91797 96.459 7.46484L96.5137 8.25781H96.5684C97.0423 7.47396 97.571 6.96354 98.1543 6.72656C98.7376 6.48958 99.4395 6.37109 100.26 6.37109C102.402 6.37109 103.906 7.11393 104.771 8.59961C105.646 10.0762 106.084 11.8171 106.084 13.8223C106.084 15.8275 105.646 17.5729 104.771 19.0586C103.906 20.5352 102.402 21.2734 100.26 21.2734C99.4395 21.2734 98.7376 21.1549 98.1543 20.918C97.571 20.681 97.0423 20.1706 96.5684 19.3867H96.5137C96.5501 19.7513 96.5684 20.1159 96.5684 20.4805V25.6484C96.5684 26.1953 96.2949 26.4688 95.748 26.4688H93.5605ZM96.5684 14.4375C96.5684 15.668 96.8099 16.6706 97.293 17.4453C97.7852 18.2109 98.373 18.5938 99.0566 18.5938C100.287 18.5938 101.089 18.1654 101.463 17.3086C101.846 16.4427 102.037 15.2806 102.037 13.8223C102.037 12.3639 101.846 11.2064 101.463 10.3496C101.089 9.48372 100.287 9.05078 99.0566 9.05078C98.373 9.05078 97.7852 9.43815 97.293 10.2129C96.8099 10.9785 96.5684 11.9766 96.5684 13.207V14.4375ZM109.857 26.4688C109.311 26.4688 109.037 26.1953 109.037 25.6484V7.46484C109.037 6.91797 109.311 6.64453 109.857 6.64453H112.018C112.473 6.64453 112.719 6.91797 112.756 7.46484L112.811 8.25781H112.865C113.339 7.47396 113.868 6.96354 114.451 6.72656C115.035 6.48958 115.736 6.37109 116.557 6.37109C118.699 6.37109 120.202 7.11393 121.068 8.59961C121.943 10.0762 122.381 11.8171 122.381 13.8223C122.381 15.8275 121.943 17.5729 121.068 19.0586C120.202 20.5352 118.699 21.2734 116.557 21.2734C115.736 21.2734 115.035 21.1549 114.451 20.918C113.868 20.681 113.339 20.1706 112.865 19.3867H112.811C112.847 19.7513 112.865 20.1159 112.865 20.4805V25.6484C112.865 26.1953 112.592 26.4688 112.045 26.4688H109.857ZM112.865 14.4375C112.865 15.668 113.107 16.6706 113.59 17.4453C114.082 18.2109 114.67 18.5938 115.354 18.5938C116.584 18.5938 117.386 18.1654 117.76 17.3086C118.143 16.4427 118.334 15.2806 118.334 13.8223C118.334 12.3639 118.143 11.2064 117.76 10.3496C117.386 9.48372 116.584 9.05078 115.354 9.05078C114.67 9.05078 114.082 9.43815 113.59 10.2129C113.107 10.9785 112.865 11.9766 112.865 13.207V14.4375Z" fill="#FF8C00"/>
</g>
<defs>
<filter id="filter0_b_1_7" x="-4.00977" y="-3.17969" width="130.391" height="33.6484" filterUnits="userSpaceOnUse" color-interpolation-filters="sRGB">
<feFlood flood-opacity="0" result="BackgroundImageFix"/>
<feGaussianBlur in="BackgroundImageFix" stdDeviation="2"/>
<feComposite in2="SourceAlpha" operator="in" result="effect1_backgroundBlur_1_7"/>
<feBlend mode="normal" in="SourceGraphic" in2="effect1_backgroundBlur_1_7" result="shape"/>
</filter>
</defs>
</svg>
